<svg height="512" viewBox="0 0 512 512" width="512" xmlns="http://www.w3.org/2000/svg"><path d="M325.049 343.01a71.375 71.375 0 0 0 2.449-18.55c0-39.43-32.079-71.5-71.499-71.5s-71.5 32.07-71.5 71.5c0 6.9.989 13.601 2.84 19.92v.001l.001-.001c29.38-16.22 80.949-33.49 137.709-1.37z" fill="#E74C3C"/><path fill="#58435E" d="M363 319.455h51v10h-51zm-265 0h51v10H98zm237.19-67.148l-7.071-7.073 18.035-18.033 7.073 7.073zm-169.356-25.083l18.03 18.03-7.07 7.071-18.03-18.03zm90.165 15.736c-44.94 0-81.5 36.561-81.5 81.5 0 7.29.979 14.351 2.79 21.08h8.001c.67-.39 1.349-.771 2.049-1.159v-.001a70.843 70.843 0 0 1-2.84-19.92c0-39.43 32.08-71.5 71.5-71.5s71.499 32.07 71.499 71.5c0 6.41-.859 12.641-2.449 18.55l.001.001c1.431.799 2.87 1.649 4.311 2.529h5.35a80.974 80.974 0 0 0 2.79-21.08c-.001-44.941-36.56-81.5-81.502-81.5zm30.839-56.98l-7.071-7.071-19.404 19.404v-89.928h-10v89.928l-18.767-18.768-7.071 7.072 30.838 30.838z"/><path d="M187.34 344.38c.099.391.219.771.339 1.16H324.32c.26-.84.5-1.68.729-2.53-56.76-32.12-108.329-14.85-137.709 1.37z" fill="#E74C3C"/><path d="M187.34 344.38c.099.391.219.771.339 1.16H324.32c.26-.84.5-1.68.729-2.53-56.76-32.12-108.329-14.85-137.709 1.37z" fill="#58435E" opacity=".1"/><path d="M325.049 343.01c-.229.851-.47 1.69-.729 2.53h5.041c-1.441-.88-2.88-1.731-4.312-2.53.001 0 0 0 0 0z" fill="#58435E"/><path d="M325.049 343.01c-.229.851-.47 1.69-.729 2.53h5.041c-1.441-.88-2.88-1.731-4.312-2.53.001 0 0 0 0 0z" fill="#58435E" opacity=".1"/><path d="M185.29 345.54h2.389c-.12-.389-.24-.77-.34-1.159-.7.388-1.379.769-2.049 1.159z" fill="#58435E"/><path d="M185.29 345.54h2.389c-.12-.389-.24-.77-.34-1.159-.7.388-1.379.769-2.049 1.159z" fill="#58435E" opacity=".1"/></svg>