<svg xmlns="http://www.w3.org/2000/svg" xmlns:xlink="http://www.w3.org/1999/xlink" x="0px" y="0px" width="64px" height="64px" viewBox="0 0 64 64"><g >
<path fill="#474748" d="M63,28C63,14,49.4,3,32,3S1,14,1,28c0,14.1,13.9,25.5,31,25.5c2.8,0,5.6-0.3,8.3-1l15.3,6.3
C55.7,59,55.9,59,56,59c0.2,0,0.4-0.1,0.6-0.2c0.3-0.2,0.4-0.5,0.4-0.9l-1-13.8C60.5,39.6,63,33.9,63,28z M34,35H18
c-0.6,0-1-0.4-1-1s0.4-1,1-1h16c0.6,0,1,0.4,1,1S34.6,35,34,35z M46,23H18c-0.6,0-1-0.4-1-1s0.4-1,1-1h28c0.6,0,1,0.4,1,1
S46.6,23,46,23z"/>
</g></svg>