<?xml version="1.0" ?><!DOCTYPE svg  PUBLIC '-//W3C//DTD SVG 1.1//EN'  'http://www.w3.org/Graphics/SVG/1.1/DTD/svg11.dtd'><svg enable-background="new 0 0 512 512" height="512px" id="Calque_1" version="1.1" viewBox="0 0 512 512" width="512px" xml:space="preserve" xmlns="http://www.w3.org/2000/svg" xmlns:xlink="http://www.w3.org/1999/xlink"><g><polygon fill="#E74C3C" points="187.68,345.54 187.682,345.545 256,345.545 256.001,345.545 324.317,345.545 324.318,345.54  "/><path d="M325.659,340.54c0.002,0.001,0.004,0.003,0.006,0.004c1.196-5.173,1.829-10.559,1.829-16.089   c0-39.423-32.071-71.496-71.494-71.496s-71.496,32.073-71.496,71.496c0,5.605,0.655,11.06,1.882,16.297   c0.001-0.001,0.002-0.001,0.004-0.002C216.75,324.58,268.84,308.23,325.659,340.54z" fill="#E74C3C"/><rect fill="#58435E" height="10" width="51" x="363" y="319.455"/><rect fill="#58435E" height="10" width="51" x="98" y="319.455"/><rect fill="#58435E" height="25.503" transform="matrix(-0.7071 -0.7072 0.7072 -0.7071 411.9918 650.2274)" width="10.002" x="335.674" y="227.028"/><rect fill="#58435E" height="10" transform="matrix(0.7071 0.7071 -0.7071 0.7071 219.7245 -50.9077)" width="25.499" x="158.564" y="234.777"/><path d="M255.999,242.959c-44.938,0-81.496,36.561-81.496,81.496c0,7.293,0.978,14.359,2.783,21.09h0.002h10.394   c0-0.002-0.001-0.003-0.001-0.005h-9.71c2.579-1.568,5.388-3.179,8.416-4.788c-1.227-5.237-1.882-10.691-1.882-16.297   c0-39.423,32.073-71.496,71.496-71.496s71.494,32.073,71.494,71.496c0,5.53-0.633,10.916-1.829,16.089   c2.729,1.549,5.467,3.207,8.215,4.996h-9.563c0,0.002-0.001,0.003-0.001,0.005h10.396c1.805-6.729,2.78-13.797,2.78-21.09   C337.493,279.517,300.935,242.959,255.999,242.959z" fill="#58435E"/><polygon fill="#58435E" points="251,127.526 251,166.455 251,217.455 261,217.455 261,166.455 261,127.526 279.768,146.293    286.838,139.222 256,108.385 224.525,139.858 231.597,146.93  "/><path d="M325.665,340.544c-0.002-0.001-0.004-0.003-0.006-0.004c-56.819-32.31-108.909-15.96-139.27,0.21   c-0.001,0.001-0.002,0.001-0.004,0.002c0.379,1.617,0.808,3.215,1.294,4.788h136.637   C324.826,343.898,325.276,342.232,325.665,340.544z" fill="#E74C3C"/><path d="M325.665,340.544c-0.002-0.001-0.004-0.003-0.006-0.004   c-56.819-32.31-108.909-15.96-139.27,0.21c-0.001,0.001-0.002,0.001-0.004,0.002c0.379,1.617,0.808,3.215,1.294,4.788h136.637   C324.826,343.898,325.276,342.232,325.665,340.544z" enable-background="new    " fill="#58435E" opacity="0.1"/><path d="M333.88,345.54c-2.748-1.789-5.486-3.447-8.215-4.996c-0.39,1.688-0.839,3.354-1.348,4.996H333.88z" fill="#58435E"/><path d="M333.88,345.54c-2.748-1.789-5.486-3.447-8.215-4.996   c-0.39,1.688-0.839,3.354-1.348,4.996H333.88z" enable-background="new    " fill="#58435E" opacity="0.1"/><path d="M177.97,345.54h9.71c-0.486-1.573-0.916-3.171-1.294-4.788C183.358,342.361,180.549,343.971,177.97,345.54z   " fill="#58435E"/><path d="M177.97,345.54h9.71c-0.486-1.573-0.916-3.171-1.294-4.788   C183.358,342.361,180.549,343.971,177.97,345.54z" enable-background="new    " fill="#58435E" opacity="0.1"/></g></svg>