<?xml version="1.0" ?><!DOCTYPE svg  PUBLIC '-//W3C//DTD SVG 1.1//EN'  'http://www.w3.org/Graphics/SVG/1.1/DTD/svg11.dtd'><svg enable-background="new 0 0 512 512" height="512px" id="Calque_1" version="1.1" viewBox="0 0 512 512" width="512px" xml:space="preserve" xmlns="http://www.w3.org/2000/svg" xmlns:xlink="http://www.w3.org/1999/xlink"><g><path d="M325.049,343.01L325.049,343.01c1.59-5.909,2.449-12.14,2.449-18.55c0-39.43-32.079-71.5-71.499-71.5   s-71.5,32.07-71.5,71.5c0,6.9,0.989,13.601,2.84,19.92c0,0,0,0,0,0.001c0-0.001,0-0.001,0.001-0.001   C216.72,328.16,268.289,310.89,325.049,343.01z" fill="#E74C3C"/><rect fill="#58435E" height="10" width="51" x="363" y="319.455"/><rect fill="#58435E" height="10" width="51" x="98" y="319.455"/><rect fill="#58435E" height="25.503" transform="matrix(-0.7071 -0.7072 0.7072 -0.7071 411.9918 650.2274)" width="10.002" x="335.674" y="227.028"/><rect fill="#58435E" height="10" transform="matrix(0.7071 0.7071 -0.7071 0.7071 219.7245 -50.9077)" width="25.499" x="158.564" y="234.777"/><path d="M255.999,242.96c-44.94,0-81.5,36.561-81.5,81.5c0,7.29,0.979,14.351,2.79,21.08h0.001h8   c0.67-0.39,1.349-0.771,2.049-1.159c0-0.001,0-0.001,0-0.001c-1.851-6.319-2.84-13.02-2.84-19.92c0-39.43,32.08-71.5,71.5-71.5   s71.499,32.07,71.499,71.5c0,6.41-0.859,12.641-2.449,18.55l0,0c0,0.001,0.001,0.001,0.001,0.001   c1.431,0.799,2.87,1.649,4.311,2.529h5.35c1.81-6.72,2.79-13.79,2.79-21.08C337.5,279.519,300.941,242.96,255.999,242.96z" fill="#58435E"/><polygon fill="#58435E" points="286.838,185.98 279.767,178.909 260.363,198.313 260.363,159.385 260.363,108.385 250.363,108.385    250.363,159.385 250.363,198.313 231.596,179.545 224.525,186.617 255.363,217.455  "/><path d="M187.34,344.38C187.34,344.38,187.34,344.38,187.34,344.38c0.099,0.391,0.219,0.771,0.339,1.16H324.32   c0.26-0.84,0.5-1.68,0.729-2.53C268.289,310.89,216.72,328.16,187.34,344.38z" fill="#E74C3C"/><path d="M187.34,344.38C187.34,344.38,187.34,344.38,187.34,344.38   c0.099,0.391,0.219,0.771,0.339,1.16H324.32c0.26-0.84,0.5-1.68,0.729-2.53C268.289,310.89,216.72,328.16,187.34,344.38z" enable-background="new    " fill="#58435E" opacity="0.1"/><path d="M325.049,343.01c-0.229,0.851-0.47,1.69-0.729,2.53h5.041C327.92,344.66,326.481,343.809,325.049,343.01   C325.05,343.01,325.049,343.01,325.049,343.01z" fill="#58435E"/><path d="M325.049,343.01c-0.229,0.851-0.47,1.69-0.729,2.53h5.041   C327.92,344.66,326.481,343.809,325.049,343.01C325.05,343.01,325.049,343.01,325.049,343.01z" enable-background="new    " fill="#58435E" opacity="0.1"/><path d="M185.29,345.54h2.389c-0.12-0.389-0.24-0.77-0.34-1.159C186.639,344.769,185.96,345.15,185.29,345.54z" fill="#58435E"/><path d="M185.29,345.54h2.389c-0.12-0.389-0.24-0.77-0.34-1.159   C186.639,344.769,185.96,345.15,185.29,345.54z" enable-background="new    " fill="#58435E" opacity="0.1"/></g></svg>